<svg height="511pt" viewBox="0 1 511 511.99985" width="511pt" xmlns="http://www.w3.org/2000/svg"><path d="m512.453125 260.023438v171.984374c0 44.105469-35.882813 79.992188-79.992187 79.992188h-351.96875c-44.105469 0-79.992188-35.886719-79.992188-79.992188v-351.96875c0-44.109374 35.886719-79.9960932 79.992188-79.9960932h228.980468c11.046875 0 20 8.9570312 20 20.0000002 0 11.046875-8.953125 20-20 20h-228.980468c-22.054688 0-39.996094 17.941406-39.996094 39.996093v351.96875c0 22.054688 17.941406 39.996094 39.996094 39.996094h351.96875c22.054687 0 39.996093-17.941406 39.996093-39.996094v-171.984374c0-11.046876 8.953125-20 20-20 11.042969 0 19.996094 8.953124 19.996094 20zm-45.886719-146.144532c3.800782 3.777344 5.894532 8.789063 5.894532 14.109375 0 5.324219-2.09375 10.332031-5.894532 14.109375l-80.199218 79.695313c-7.832032 7.785156-7.871094 20.449219-.085938 28.28125 3.90625 3.933593 9.046875 5.902343 14.183594 5.902343 5.097656 0 10.195312-1.9375 14.097656-5.8125l80.199219-79.695312c11.410156-11.34375 17.695312-26.425781 17.695312-42.480469 0-16.054687-6.285156-31.140625-17.695312-42.480469l-80.199219-79.695312c-7.832031-7.785156-20.496094-7.746094-28.28125.089844-7.785156 7.835937-7.746094 20.496094.085938 28.28125zm-43.105468 13.15625c0-11.046875-8.953126-20-19.996094-20-72.113282 0-139.910156 28.082032-190.902344 79.074219s-79.074219 118.789063-79.074219 190.902344v15c0 11.042969 8.953125 19.996093 20 19.996093 11.042969 0 19.996094-8.953124 19.996094-19.996093v-15c0-126.8125 103.167969-229.980469 229.980469-229.980469 11.042968 0 19.996094-8.953125 19.996094-19.996094zm0 0"/></svg>